# xmcd CD database file
#
# Track frame offsets:
#	150
#	16865
#	37328
#	60655
#	75545
#	91420
#	104500
#	114315
#	121538
#	141910
#	148750
#	156135
#	172158
#	185860
#	201243
#	214798
#	224133
#	231260
#	247325
#	260658
#
# Disc length: 3650 seconds
#
# Revision: 0
# Processed by: cddbd v1.5.1PL0 Copyright (c) Steve Scherf et al.
# Submitted via: CDex 1.51
#
DISCID=3a0e4014
DTITLE=Gil Scott-Heron - Free Will
DYEAR=1972
DGENRE=Jazz
TTITLE0=Free Will
TTITLE1=The Middle of Your Day
TTITLE2=The Get Out of the Ghetto Blues
TTITLE3=Speed Kills
TTITLE4=Did You Hear What They Said?
TTITLE5=The King Alfred Plan
TTITLE6=No Knock
TTITLE7=Wiggy
TTITLE8=Ain't No New Thing
TTITLE9=Billy Green is Dead
TTITLE10=Sex Education, Ghetto Style
TTITLE11=And Then He Wrote "Meditations"
TTITLE12=Free Will (Alternate Take)
TTITLE13=Speed Kills (Alternate Take)
TTITLE14=The King Alfred Plan (Alternate Take)
TTITLE15=No Knock (Alternate Take)
TTITLE16=Wiggy (Alternate Take)
TTITLE17=Ain't No New Thing (Breakdown Takes)
TTITLE18=Billy Green is Dead (Alternate Take)
TTITLE19=Free Will (Alternate Take 2)
EXTD=YEAR: 1972
EXTT0=
EXTT1=
EXTT2=
EXTT3=
EXTT4=
EXTT5=
EXTT6=
EXTT7=
EXTT8=
EXTT9=
EXTT10=
EXTT11=
EXTT12=
EXTT13=
EXTT14=
EXTT15=
EXTT16=
EXTT17=
EXTT18=
EXTT19=
PLAYORDER=
